<svg width="202" height="36" fill="none" xmlns="http://www.w3.org/2000/svg"><path fill-rule="evenodd" clip-rule="evenodd" d="M81.6 14.06c2.316 1.183 2.306 1.139.882 3.893-1.244 2.406-1.582 2.504-3.542 1.022-1.946-1.473-4.198-1.32-6.43.436-2.681 2.109-2.681 6.432 0 8.541 3.95 3.107 6.311 1.841 10.841-5.809 2.249-3.796 4.438-6.507 6.211-7.687 7.21-4.797 17.081.493 17.073 9.152-.005 6.34-4.611 10.873-11.054 10.878-3.314.003-7.677-1.736-7.677-3.06 0-.474 1.583-3.324 2.672-4.81.124-.17.628.232 1.119.892 1.598 2.145 5.081 2.294 7.38.317 2.77-2.383 2.803-5.876.078-8.22-4.019-3.457-6.728-2.011-11.447 6.11-3.916 6.739-6.924 9.026-11.78 8.952-6.134-.093-11.078-4.898-11.078-10.768 0-8.84 8.704-13.952 16.752-9.84z" fill="#fff"/><path d="M35.418 35.428c-3.012 0-5.088-.887-6.23-2.663-1.11-1.775-1.664-4.248-1.664-7.418V13.125h5.136v10.938c0 1.807.095 3.218.285 4.232.222.983.634 1.712 1.236 2.188.635.475 1.57.713 2.806.713.888 0 1.744-.254 2.568-.76a5.878 5.878 0 001.998-2.046 5.486 5.486 0 00.808-2.9V13.124h5.088v21.828h-4.184l-.571-3.186c-.793 1.236-1.791 2.155-2.996 2.758-1.173.602-2.6.903-4.28.903zm18.15-18.118h-3.131v-4.185h3.13V4.232h5.184v8.893h3.935v4.185h-3.935v17.643h-5.183V17.31zm55.229-4.185h5.041l.047 3.995c.603-1.332 1.554-2.426 2.854-3.282 1.299-.855 2.821-1.283 4.565-1.283 2.251 0 3.979.475 5.183 1.426 1.205.92 2.014 2.22 2.426 3.9.412 1.68.618 3.867.618 6.562v10.51h-5.136V24.586c0-2.758-.27-4.74-.808-5.944-.539-1.237-1.649-1.855-3.329-1.855-.951 0-1.918.301-2.901.903-.983.571-1.807 1.411-2.473 2.52-.634 1.11-.951 2.41-.951 3.9v10.843h-5.136V13.125zM133.963 0h5.088v34.953h-5.088V0zm10.061 13.125h5.326v21.828h-5.326V13.125zm2.616-4.09c-.983 0-1.807-.332-2.473-.998-.666-.666-.999-1.49-.999-2.473 0-.888.333-1.649.999-2.283.666-.634 1.49-.95 2.473-.95.951 0 1.759.316 2.425.95.666.634.999 1.395.999 2.283 0 .983-.333 1.807-.999 2.473-.634.666-1.442.998-2.425.998zm7.206 4.09h5.041l.047 3.995c.603-1.332 1.554-2.426 2.854-3.282 1.299-.855 2.821-1.283 4.565-1.283 2.251 0 3.979.475 5.183 1.426 1.205.92 2.013 2.22 2.426 3.9.412 1.68.618 3.867.618 6.562v10.51h-5.136V24.586c0-2.758-.27-4.74-.809-5.944-.538-1.237-1.648-1.855-3.328-1.855-.951 0-1.918.301-2.901.903-.983.571-1.807 1.411-2.473 2.52-.634 1.11-.951 2.41-.951 3.9v10.843h-5.136V13.125zm-135.178 0v2.384a11.14 11.14 0 013.668 8.276c0 3.258-1.395 6.19-3.621 8.232v2.936h4.85V13.125h-4.898z" fill="#fff"/><path fill-rule="evenodd" clip-rule="evenodd" d="M18.715 32.017a11.139 11.139 0 003.621-8.232 11.14 11.14 0 00-4.064-8.618 11.122 11.122 0 00-7.104-2.55C5 12.617 0 17.617 0 23.785c0 6.168 5 11.168 11.168 11.168 2.91 0 5.56-1.113 7.547-2.936zm-7.547-2.108a6.125 6.125 0 100-12.249 6.125 6.125 0 000 12.25z" fill="#fff"/><path d="M189.859 35.673c-6.566 0-11.889-5.322-11.889-11.888s5.323-11.89 11.889-11.89c6.566 0 11.889 5.324 11.889 11.89 0 .865-.093 1.709-.268 2.521h-5.255c.309-.78.479-1.63.479-2.521a6.86 6.86 0 00-.239-1.802 6.849 6.849 0 00-13.211 0 6.86 6.86 0 00.24 4.323 6.846 6.846 0 0011.357 2.162h5.939c-1.818 4.237-6.028 7.205-10.931 7.205z" fill="#fff"/><path d="M196.225 26.306c.309-.78.479-1.63.479-2.521a6.86 6.86 0 00-.239-1.802h-13.211a6.86 6.86 0 00.24 4.323h12.731z" fill="#fff"/></svg>